<svg width="80" height="80" viewBox="0 0 80 80" fill="none" xmlns="http://www.w3.org/2000/svg">
<rect width="80" height="80" rx="40" fill="url(#paint0_linear_3_57)"/>
<g clip-path="url(#clip0_3_57)">
<g clip-path="url(#clip1_3_57)">
<path d="M35.536 34.536C34.7182 35.3541 33.642 35.8632 32.4908 35.9768C31.3396 36.0903 30.1847 35.8012 29.2228 35.1587C28.2608 34.5162 27.5515 33.56 27.2155 32.4531C26.8796 31.3462 26.9378 30.157 27.3803 29.0883C27.8228 28.0195 28.6222 27.1372 29.6423 26.5917C30.6624 26.0463 31.84 25.8714 32.9746 26.0968C34.1092 26.3223 35.1305 26.9342 35.8645 27.8283C36.5985 28.7223 36.9998 29.8432 37 31M46.464 45.464C45.6459 46.2819 45.1368 47.358 45.0232 48.5092C44.9097 49.6604 45.1988 50.8153 45.8413 51.7772C46.4838 52.7392 47.44 53.4485 48.5469 53.7845C49.6538 54.1204 50.843 54.0622 51.9118 53.6197C52.9805 53.1772 53.8628 52.3778 54.4083 51.3577C54.9537 50.3376 55.1286 49.16 54.9032 48.0254C54.6777 46.8908 54.0658 45.8695 53.1717 45.1355C52.2777 44.4015 51.1568 44.0002 50 44M46.464 34.536C45.6459 33.7182 45.1368 32.642 45.0232 31.4908C44.9097 30.3396 45.1988 29.1847 45.8413 28.2228C46.4838 27.2608 47.44 26.5515 48.5469 26.2155C49.6538 25.8796 50.843 25.9378 51.9118 26.3803C52.9805 26.8228 53.8628 27.6222 54.4083 28.6423C54.9537 29.6624 55.1286 30.84 54.9032 31.9746C54.6777 33.1092 54.0658 34.1305 53.1717 34.8645C52.2777 35.5985 51.1568 35.9998 50 36M35.536 45.464C34.7182 44.6459 33.642 44.1368 32.4908 44.0232C31.3396 43.9097 30.1847 44.1988 29.2228 44.8413C28.2608 45.4838 27.5515 46.44 27.2155 47.5469C26.8796 48.6538 26.9378 49.843 27.3803 50.9118C27.8228 51.9805 28.6222 52.8628 29.6423 53.4083C30.6624 53.9537 31.84 54.1286 32.9746 53.9032C34.1092 53.6777 35.1305 53.0658 35.8645 52.1717C36.5985 51.2777 36.9998 50.1568 37 49" stroke="#CDE0FF" stroke-width="2" stroke-linecap="square"/>
<path d="M32 31L38 37M38 37H44M38 37V43M38 43L32 49M38 43H44M44 43L50 49M44 43V37M44 37L50 31" stroke="#29FFFB" stroke-width="2" stroke-linecap="square"/>
</g>
</g>
<defs>
<linearGradient id="paint0_linear_3_57" x1="8.42937e-07" y1="80" x2="80" y2="8.42937e-07" gradientUnits="userSpaceOnUse">
<stop offset="0.2" stop-color="#004ECC"/>
<stop offset="0.8" stop-color="#5766DA"/>
</linearGradient>
<clipPath id="clip0_3_57">
<rect width="80" height="80" rx="2" fill="white"/>
</clipPath>
<clipPath id="clip1_3_57">
<rect width="80" height="80" fill="white"/>
</clipPath>
</defs>
</svg>
