<svg width="80" height="80" viewBox="0 0 80 80" fill="none" xmlns="http://www.w3.org/2000/svg">
<rect width="80" height="80" rx="40" fill="url(#paint0_linear_3_35)"/>
<g clip-path="url(#clip0_3_35)">
<g clip-path="url(#clip1_3_35)">
<path d="M47.815 43C47.933 42.004 47.995 41.003 48 40C48 31.716 44.418 25 40 25C35.582 25 32 31.716 32 40C32 48.284 35.582 55 40 55C42.1 55 44 53.475 45.426 51" stroke="#29FFFB" stroke-width="2" stroke-linecap="square"/>
<path d="M37 32.185C37.9957 32.0669 38.9973 32.0051 40 32C48.284 32 55 35.582 55 40C55 44.418 48.284 48 40 48C31.716 48 25 44.418 25 40C25 37.9 26.525 36 29 34.574" stroke="#CDE0FF" stroke-width="2" stroke-linecap="square"/>
<path d="M40 43C41.6569 43 43 41.6569 43 40C43 38.3431 41.6569 37 40 37C38.3431 37 37 38.3431 37 40C37 41.6569 38.3431 43 40 43Z" stroke="#CDE0FF" stroke-width="2" stroke-linecap="square"/>
</g>
</g>
<defs>
<linearGradient id="paint0_linear_3_35" x1="8.42937e-07" y1="80" x2="80" y2="8.42937e-07" gradientUnits="userSpaceOnUse">
<stop offset="0.2" stop-color="#004ECC"/>
<stop offset="0.8" stop-color="#5766DA"/>
</linearGradient>
<clipPath id="clip0_3_35">
<rect width="80" height="80" rx="2" fill="white"/>
</clipPath>
<clipPath id="clip1_3_35">
<rect width="80" height="80" fill="white"/>
</clipPath>
</defs>
</svg>

